<svg width="19" height="14" viewBox="0 0 19 14" fill="none" xmlns="http://www.w3.org/2000/svg">
<path d="M1.51677 7.59464C1.40328 7.41494 1.34654 7.32509 1.31477 7.18651C1.29091 7.08241 1.29091 6.91824 1.31477 6.81415C1.34654 6.67556 1.40328 6.58571 1.51677 6.40601C2.45461 4.92103 5.24617 1.16699 9.50034 1.16699C13.7545 1.16699 16.5461 4.92103 17.4839 6.40601C17.5974 6.58571 17.6541 6.67556 17.6859 6.81415C17.7098 6.91824 17.7098 7.08241 17.6859 7.18651C17.6541 7.32509 17.5974 7.41494 17.4839 7.59464C16.5461 9.07962 13.7545 12.8337 9.50034 12.8337C5.24617 12.8337 2.45461 9.07963 1.51677 7.59464Z" stroke="#512A38" stroke-width="1.66667" stroke-linecap="round" stroke-linejoin="round"/>
<path d="M9.50034 9.50033C10.881 9.50033 12.0003 8.38104 12.0003 7.00033C12.0003 5.61961 10.881 4.50033 9.50034 4.50033C8.11962 4.50033 7.00034 5.61961 7.00034 7.00033C7.00034 8.38104 8.11962 9.50033 9.50034 9.50033Z" stroke="currentColor" stroke-width="1.66667" stroke-linecap="round" stroke-linejoin="round"/>
</svg>
